<svg
    xmlns="http://www.w3.org/2000/svg"
    viewBox="0 0 24 24"
    id="vector">
    <path
        id="path_2"
        d="M 16.5 17 C 15.67 17 15 16.33 15 15.5 C 15 14.67 15.67 14 16.5 14 C 17.33 14 18 14.67 18 15.5 C 18 16.33 17.33 17 16.5 17 Z M 18 11 L 6 11 L 6 6 L 18 6 L 18 11 Z"
        fill="#ffffff"/>
    <path
        id="path_3"
        d="M 7.5 17 C 6.67 17 6 16.33 6 15.5 C 6 14.67 6.67 14 7.5 14 C 8.33 14 9 14.67 9 15.5 C 9 16.33 8.33 17 7.5 17 Z"
        fill="#ffffff"/>
    <path
        id="path_4"
        d="M 19 16.94 L 19 8.5 C 19 5.71 16.39 5.1 12.99 5.01 L 13.75 3.5 L 17 3.5 L 17 2 L 7 2 L 7 3.5 L 11.75 3.5 L 10.99 5.02 C 7.86 5.11 5 5.73 5 8.5 L 5 16.94 C 5 18.39 6.19 19.6 7.59 19.91 L 6 21.5 L 6 22 L 8.23 22 L 10.23 20 L 14 20 L 16 22 L 18 22 L 18 21.5 L 16.5 20 L 16.42 20 C 18.11 20 19 18.63 19 16.94 Z M 12 18.5 C 11.17 18.5 10.5 17.83 10.5 17 C 10.5 16.17 11.17 15.5 12 15.5 C 12.83 15.5 13.5 16.17 13.5 17 C 13.5 17.83 12.83 18.5 12 18.5 Z M 17 14 L 7 14 L 7 9 L 17 9 L 17 14 Z"
        fill="#9575cd"
        stroke="#000000"
        stroke-width="0.1"/>
    <path
        id="path_5"
        d="M 12 18.5 C 11.17 18.5 10.5 17.83 10.5 17 C 10.5 16.17 11.17 15.5 12 15.5 C 12.83 15.5 13.5 16.17 13.5 17 C 13.5 17.83 12.83 18.5 12 18.5 Z"
        fill="#ffffff"/>
    <path
        id="path_6"
        d="M 17 14 L 7 14 L 7 8 L 17 8 L 17 13 Z"
        fill="#ffffff"
        stroke="#000000"
        stroke-width="0.1"/>
</svg>
